<svg xmlns="http://www.w3.org/2000/svg" xmlns:xlink="http://www.w3.org/1999/xlink" width="500" zoomAndPan="magnify" viewBox="0 0 375 374.999991" height="500" preserveAspectRatio="xMidYMid meet" version="1.0"><defs><g/><clipPath id="7ab5aef274"><path d="M 71.367188 57 L 128.65625 57 L 128.65625 116 L 71.367188 116 Z M 71.367188 57 " clip-rule="nonzero"/></clipPath><clipPath id="a2c3326b5d"><path d="M 1 1 L 179.792969 1 L 179.792969 135.839844 L 1 135.839844 Z M 1 1 " clip-rule="nonzero"/></clipPath><clipPath id="474a3220db"><path d="M 99 65 L 282.960938 65 L 282.960938 107 L 99 107 Z M 99 65 " clip-rule="nonzero"/></clipPath><clipPath id="ea78c2443e"><path d="M 1 0.480469 L 83 0.480469 L 83 18 L 1 18 Z M 1 0.480469 " clip-rule="nonzero"/></clipPath><clipPath id="1e0c582713"><rect x="0" width="84" y="0" height="19"/></clipPath><clipPath id="6dbfbe7f2a"><rect x="0" width="283" y="0" height="136"/></clipPath></defs><rect x="-37.5" width="450" fill="#ffffff" y="-37.499999" height="449.999989" fill-opacity="1"/><rect x="-37.5" width="450" fill="#ffffff" y="-37.499999" height="449.999989" fill-opacity="1"/><g transform="matrix(1, 0, 0, 1, 42, 114)"><g clip-path="url(#6dbfbe7f2a)"><g clip-path="url(#7ab5aef274)"><path fill="#004aad" d="M 103.46875 103.589844 C 100.113281 106.628906 96.449219 109.238281 92.484375 111.421875 C 91.421875 112.042969 90.320312 112.621094 89.1875 113.152344 C 87.140625 112.300781 85.214844 111.230469 83.414062 109.941406 C 81.613281 108.648438 79.984375 107.167969 78.523438 105.5 C 77.0625 103.835938 75.8125 102.023438 74.769531 100.066406 C 73.726562 98.113281 72.917969 96.0625 72.347656 93.921875 C 73.5 94.636719 74.710938 95.324219 75.917969 95.957031 C 80.164062 98.253906 84.609375 100.046875 89.261719 101.335938 C 93.914062 102.625 98.648438 103.375 103.46875 103.589844 Z M 86.988281 97.824219 C 84.78125 93.570312 83.066406 89.125 81.855469 84.492188 C 80.640625 79.855469 79.953125 75.144531 79.792969 70.355469 C 79.792969 68.980469 79.792969 67.605469 79.792969 66.261719 C 78.464844 67.59375 77.277344 69.039062 76.234375 70.601562 C 75.191406 72.167969 74.308594 73.816406 73.589844 75.550781 C 72.867188 77.289062 72.320312 79.078125 71.953125 80.921875 C 71.582031 82.765625 71.390625 84.625 71.386719 86.503906 C 71.382812 87.757812 71.464844 89 71.632812 90.242188 C 72.660156 90.9375 73.703125 91.597656 74.765625 92.21875 C 78.632812 94.558594 82.71875 96.425781 87.015625 97.824219 Z M 103.992188 60.683594 C 105.171875 59.96875 106.382812 59.257812 107.617188 58.625 C 105.488281 58.058594 103.324219 57.742188 101.121094 57.675781 C 98.917969 57.609375 96.738281 57.792969 94.578125 58.226562 C 92.417969 58.660156 90.335938 59.332031 88.332031 60.242188 C 86.328125 61.15625 84.449219 62.28125 82.703125 63.625 C 82.703125 64.859375 82.539062 66.097656 82.511719 67.332031 C 82.449219 71.847656 82.878906 76.316406 83.800781 80.738281 C 86.375 76.683594 89.367188 72.964844 92.773438 69.578125 C 96.179688 66.195312 99.921875 63.230469 103.992188 60.683594 Z M 124.511719 76.890625 C 125.722656 77.523438 126.929688 78.210938 128.082031 78.925781 C 127.511719 76.78125 126.703125 74.734375 125.660156 72.777344 C 124.617188 70.824219 123.367188 69.011719 121.90625 67.34375 C 120.449219 65.675781 118.816406 64.199219 117.015625 62.90625 C 115.214844 61.613281 113.292969 60.542969 111.246094 59.695312 C 110.109375 60.226562 109.011719 60.804688 107.949219 61.425781 C 103.984375 63.613281 100.320312 66.222656 96.960938 69.253906 C 101.78125 69.46875 106.519531 70.222656 111.167969 71.511719 C 115.820312 72.800781 120.269531 74.59375 124.511719 76.890625 Z M 120.640625 106.859375 C 121.976562 105.523438 123.167969 104.070312 124.21875 102.496094 C 125.269531 100.925781 126.152344 99.265625 126.878906 97.519531 C 127.601562 95.773438 128.148438 93.976562 128.515625 92.121094 C 128.886719 90.269531 129.070312 88.394531 129.070312 86.503906 C 129.074219 85.253906 128.992188 84.007812 128.824219 82.769531 C 127.800781 82.09375 126.753906 81.433594 125.691406 80.792969 C 121.820312 78.492188 117.734375 76.660156 113.441406 75.296875 C 115.652344 79.550781 117.363281 83.996094 118.578125 88.628906 C 119.792969 93.265625 120.480469 97.976562 120.640625 102.769531 C 120.832031 104.140625 120.832031 105.515625 120.640625 106.859375 Z M 96.464844 112.355469 C 95.285156 113.070312 94.074219 113.78125 92.839844 114.414062 C 94.96875 114.980469 97.132812 115.292969 99.335938 115.363281 C 101.539062 115.429688 103.71875 115.246094 105.878906 114.8125 C 108.039062 114.378906 110.121094 113.707031 112.125 112.796875 C 114.132812 111.882812 116.007812 110.757812 117.753906 109.414062 C 117.753906 108.179688 117.917969 106.941406 117.945312 105.707031 C 118.007812 101.191406 117.578125 96.722656 116.65625 92.300781 C 114.082031 96.351562 111.089844 100.066406 107.683594 103.445312 C 104.273438 106.824219 100.535156 109.785156 96.464844 112.328125 Z M 96.464844 112.355469 " fill-opacity="1" fill-rule="nonzero"/></g><g clip-path="url(#a2c3326b5d)"><path fill="#000000" d="M 80.902344 27.855469 C 71.402344 27.855469 68.902344 29.375 68.804688 29.960938 C 68.769531 30.179688 69.40625 31.246094 73.199219 32.445312 C 80.855469 34.863281 123.09375 32.085938 129.6875 27.804688 C 121.484375 27.730469 112.8125 27.816406 104.902344 27.890625 C 96.246094 27.964844 88.777344 28.035156 83.714844 27.898438 C 82.714844 27.871094 81.78125 27.855469 80.902344 27.855469 Z M 91.761719 121.984375 C 93.867188 122.21875 96.035156 122.339844 98.257812 122.339844 C 108.976562 122.339844 116.472656 116.730469 120.875 112.027344 C 127.582031 104.855469 131.726562 94.660156 131.195312 86.648438 C 130.355469 74.039062 121.105469 55.523438 99.101562 55.523438 C 98.828125 55.523438 98.554688 55.523438 98.273438 55.53125 C 76.691406 55.984375 72.042969 75.179688 71.859375 75.996094 C 71.722656 76.34375 62.980469 97.421875 85.660156 117.386719 C 87.597656 119.085938 89.640625 120.613281 91.761719 121.984375 Z M 94.824219 123.820312 C 99.941406 126.675781 105.433594 128.707031 110.988281 130.140625 C 133.738281 123.378906 143.992188 106.605469 145.71875 92.121094 C 148.089844 72.203125 135.726562 49.699219 107.5 45.21875 C 93.402344 42.980469 80.636719 45.945312 71.558594 53.5625 C 62.925781 60.804688 58.050781 71.875 57.828125 84.734375 C 57.640625 95.679688 60.796875 104.542969 67.210938 111.070312 C 72.417969 116.367188 79.6875 119.929688 88.230469 121.472656 C 86.996094 120.5625 85.789062 119.597656 84.621094 118.566406 C 61.042969 97.820312 70.269531 75.726562 70.367188 75.507812 C 70.371094 75.433594 75.40625 54.429688 98.242188 53.953125 C 121.984375 53.421875 131.875 73.171875 132.765625 86.542969 C 133.328125 94.960938 129.011719 105.636719 122.027344 113.101562 C 117.414062 118.035156 109.542969 123.914062 98.257812 123.914062 C 97.101562 123.914062 95.949219 123.882812 94.824219 123.820312 Z M 59.199219 135.335938 C 36.359375 135.335938 15.917969 134.367188 10.394531 132.296875 C 2.253906 129.246094 0.898438 119.113281 1.359375 104.832031 C 1.820312 90.488281 2.378906 43.496094 2.386719 43.023438 C 2.390625 42.59375 2.742188 42.246094 3.175781 42.246094 C 3.175781 42.246094 3.179688 42.246094 3.183594 42.246094 C 3.617188 42.25 3.96875 42.605469 3.960938 43.042969 C 3.957031 43.515625 3.394531 90.523438 2.933594 104.886719 C 2.496094 118.484375 3.691406 128.097656 10.949219 130.820312 C 18.058594 133.484375 56.003906 134.558594 92.136719 133.113281 C 97.953125 132.878906 103.230469 132.125 107.996094 130.949219 C 102.179688 129.246094 96.464844 126.84375 91.21875 123.511719 C 80.9375 122.289062 72.179688 118.371094 66.085938 112.175781 C 59.363281 105.335938 56.054688 96.09375 56.25 84.707031 C 56.480469 71.386719 61.558594 59.894531 70.542969 52.351562 C 79.976562 44.4375 93.183594 41.351562 107.746094 43.660156 C 136.953125 48.296875 149.746094 71.644531 147.28125 92.308594 C 145.5625 106.765625 135.679688 123.425781 113.976562 130.847656 C 130.679688 134.511719 147.433594 133.078125 155.679688 132.375 C 156.566406 132.300781 157.363281 132.230469 158.054688 132.175781 C 171.011719 131.179688 177.238281 124.875 177.65625 112.328125 C 178.121094 98.335938 177.183594 60.839844 176.25 48.714844 C 175.320312 36.644531 173.136719 32.925781 159.53125 29.75 C 153.960938 28.449219 143.449219 27.96875 131.738281 27.828125 C 131.628906 28.113281 131.425781 28.421875 131.074219 28.734375 C 125.574219 33.578125 81.410156 36.695312 72.726562 33.949219 C 68.824219 32.71875 66.980469 31.285156 67.25 29.699219 C 67.808594 26.375 77.84375 26.15625 83.757812 26.320312 C 88.796875 26.464844 96.253906 26.394531 104.890625 26.3125 C 112.925781 26.238281 121.738281 26.152344 130.085938 26.234375 C 129.152344 21.125 127.472656 13.023438 120.21875 6.625 C 117.300781 4.050781 101.300781 1.96875 87.476562 3.285156 C 78.050781 4.183594 71.453125 6.496094 68.90625 9.792969 C 66.4375 12.980469 65.152344 16.082031 64.011719 18.820312 C 61.453125 24.980469 59.429688 29.84375 46.816406 31.171875 C 40.535156 31.832031 34.574219 31.914062 29.316406 31.984375 C 20.191406 32.105469 12.984375 32.207031 11.375 35.425781 C 10.679688 36.8125 11.023438 37.390625 11.140625 37.578125 C 12.261719 39.460938 18.199219 39.65625 23.945312 39.84375 C 31.597656 40.089844 40.277344 40.371094 43.597656 44.40625 C 50.273438 52.511719 47.1875 114.445312 47.054688 117.078125 C 47.03125 117.511719 46.675781 117.890625 46.226562 117.824219 C 45.792969 117.800781 45.457031 117.433594 45.476562 117 C 46.605469 94.910156 47.410156 51.519531 42.378906 45.40625 C 39.511719 41.925781 31.214844 41.65625 23.894531 41.417969 C 16.882812 41.191406 11.34375 41.011719 9.78125 38.386719 C 9.1875 37.386719 9.246094 36.152344 9.964844 34.71875 C 12.003906 30.640625 19.253906 30.542969 29.292969 30.410156 C 34.519531 30.335938 40.441406 30.257812 46.652344 29.605469 C 58.332031 28.375 60.105469 24.113281 62.554688 18.214844 C 63.730469 15.386719 65.066406 12.183594 67.65625 8.828125 C 71.269531 4.152344 80.347656 2.378906 87.332031 1.714844 C 100.855469 0.429688 117.667969 2.273438 121.257812 5.441406 C 129.066406 12.332031 130.734375 20.964844 131.691406 26.25 C 143.535156 26.394531 154.1875 26.882812 159.890625 28.214844 C 174.257812 31.566406 176.855469 36.019531 177.824219 48.59375 C 178.761719 60.753906 179.703125 98.351562 179.234375 112.378906 C 178.789062 125.707031 171.902344 132.691406 158.179688 133.746094 C 157.484375 133.800781 156.695312 133.867188 155.8125 133.945312 C 147.058594 134.695312 128.828125 136.257812 111.03125 131.777344 C 105.484375 133.382812 99.226562 134.40625 92.199219 134.691406 C 81.5625 135.113281 70.105469 135.335938 59.199219 135.335938 " fill-opacity="1" fill-rule="nonzero"/></g><g clip-path="url(#474a3220db)"><path fill="#ffffff" d="M 120.136719 65.859375 L 262.375 65.859375 C 267.734375 65.859375 272.875 67.988281 276.664062 71.777344 C 280.453125 75.566406 282.578125 80.703125 282.578125 86.0625 C 282.578125 91.421875 280.453125 96.5625 276.664062 100.351562 C 272.875 104.140625 267.734375 106.269531 262.375 106.269531 L 120.136719 106.269531 C 108.976562 106.269531 99.933594 97.222656 99.933594 86.0625 C 99.933594 74.90625 108.976562 65.859375 120.136719 65.859375 Z M 120.136719 65.859375 " fill-opacity="1" fill-rule="nonzero"/></g><g fill="#000000" fill-opacity="1"><g transform="translate(105.431785, 95.462014)"><g><path d="M 1.015625 0 L 1.015625 -0.625 L 3.171875 -0.765625 L 3.171875 -19.1875 L 1.015625 -19.328125 L 1.015625 -19.953125 L 8.0625 -19.953125 C 9.957031 -19.953125 11.582031 -19.710938 12.9375 -19.234375 C 14.289062 -18.765625 15.359375 -18.078125 16.140625 -17.171875 C 16.929688 -16.265625 17.503906 -15.210938 17.859375 -14.015625 C 18.222656 -12.828125 18.40625 -11.453125 18.40625 -9.890625 C 18.40625 -8.753906 18.285156 -7.695312 18.046875 -6.71875 C 17.816406 -5.75 17.445312 -4.847656 16.9375 -4.015625 C 16.4375 -3.179688 15.804688 -2.46875 15.046875 -1.875 C 14.285156 -1.289062 13.351562 -0.832031 12.25 -0.5 C 11.144531 -0.164062 9.90625 0 8.53125 0 Z M 6.75 -0.90625 C 7.257812 -0.8125 7.71875 -0.765625 8.125 -0.765625 C 9.070312 -0.765625 9.914062 -0.914062 10.65625 -1.21875 C 11.40625 -1.53125 12.023438 -1.957031 12.515625 -2.5 C 13.015625 -3.050781 13.425781 -3.71875 13.75 -4.5 C 14.082031 -5.289062 14.320312 -6.144531 14.46875 -7.0625 C 14.613281 -7.988281 14.6875 -9.003906 14.6875 -10.109375 C 14.6875 -11.191406 14.632812 -12.15625 14.53125 -13 C 14.425781 -13.851562 14.226562 -14.679688 13.9375 -15.484375 C 13.65625 -16.285156 13.28125 -16.945312 12.8125 -17.46875 C 12.351562 -17.988281 11.738281 -18.40625 10.96875 -18.71875 C 10.207031 -19.03125 9.316406 -19.1875 8.296875 -19.1875 C 7.773438 -19.1875 7.257812 -19.140625 6.75 -19.046875 Z M 6.75 -0.90625 "/></g></g></g><g fill="#000000" fill-opacity="1"><g transform="translate(125.254086, 95.462014)"><g><path d="M 1.015625 0 L 1.015625 -0.625 L 3.171875 -0.765625 L 3.171875 -19.1875 L 1.015625 -19.328125 L 1.015625 -19.953125 L 7 -19.953125 L 12.84375 -5.078125 L 12.859375 -5.078125 L 18.34375 -19.953125 L 24.078125 -19.953125 L 24.078125 -19.328125 L 21.921875 -19.1875 L 21.921875 -0.765625 L 24.078125 -0.625 L 24.078125 0 L 16.1875 0 L 16.1875 -0.625 L 18.34375 -0.765625 L 18.375 -17.875 L 18.34375 -17.875 L 11.703125 0.28125 L 11.1875 0.28125 L 3.796875 -18.53125 L 3.78125 -18.53125 L 3.984375 -0.765625 L 6.09375 -0.625 L 6.09375 0 Z M 1.015625 0 "/></g></g></g><g fill="#000000" fill-opacity="1"><g transform="translate(150.346497, 95.462014)"><g><path d="M -0.546875 -19.328125 L -0.546875 -19.953125 L 7.21875 -19.953125 L 7.21875 -19.328125 L 5.3125 -19.1875 L 10.875 -5 L 10.9375 -5 L 15.796875 -19.1875 L 13.921875 -19.328125 L 13.921875 -19.953125 L 18.375 -19.953125 L 18.375 -19.328125 L 16.6875 -19.1875 L 10.046875 0.28125 L 9.40625 0.28125 L 1.5625 -19.1875 Z M -0.546875 -19.328125 "/></g></g></g><g fill="#000000" fill-opacity="1"><g transform="translate(168.714976, 95.462014)"><g/></g></g><g fill="#000000" fill-opacity="1"><g transform="translate(175.187285, 95.462014)"><g><path d="M 1.015625 0 L 1.015625 -0.625 L 3.171875 -0.765625 L 3.171875 -19.1875 L 1.015625 -19.328125 L 1.015625 -19.953125 L 8.609375 -19.953125 C 9.640625 -19.953125 10.585938 -19.84375 11.453125 -19.625 C 12.328125 -19.40625 13.113281 -19.070312 13.8125 -18.625 C 14.507812 -18.1875 15.054688 -17.597656 15.453125 -16.859375 C 15.847656 -16.117188 16.046875 -15.265625 16.046875 -14.296875 C 16.046875 -13.398438 15.894531 -12.59375 15.59375 -11.875 C 15.289062 -11.15625 14.882812 -10.550781 14.375 -10.0625 C 13.863281 -9.582031 13.242188 -9.179688 12.515625 -8.859375 C 11.796875 -8.535156 11.03125 -8.300781 10.21875 -8.15625 C 9.414062 -8.007812 8.5625 -7.9375 7.65625 -7.9375 C 7.46875 -7.9375 7.164062 -7.945312 6.75 -7.96875 L 6.75 -0.765625 L 8.90625 -0.625 L 8.90625 0 Z M 6.75 -8.765625 C 7.082031 -8.734375 7.414062 -8.71875 7.75 -8.71875 C 10.800781 -8.71875 12.328125 -10.585938 12.328125 -14.328125 C 12.328125 -15.222656 12.222656 -15.988281 12.015625 -16.625 C 11.816406 -17.269531 11.523438 -17.765625 11.140625 -18.109375 C 10.753906 -18.460938 10.320312 -18.71875 9.84375 -18.875 C 9.375 -19.03125 8.835938 -19.109375 8.234375 -19.109375 C 7.773438 -19.109375 7.28125 -19.066406 6.75 -18.984375 Z M 6.75 -8.765625 "/></g></g></g><g fill="#000000" fill-opacity="1"><g transform="translate(192.060012, 95.462014)"><g><path d="M 1.015625 0 L 1.015625 -0.625 L 3.171875 -0.765625 L 3.171875 -19.1875 L 1.015625 -19.328125 L 1.015625 -19.953125 L 8.90625 -19.953125 L 8.90625 -19.328125 L 6.75 -19.1875 L 6.75 -10.65625 L 14.28125 -10.765625 L 14.28125 -19.1875 L 12.125 -19.328125 L 12.125 -19.953125 L 20.015625 -19.953125 L 20.015625 -19.328125 L 17.859375 -19.1875 L 17.859375 -0.765625 L 20.015625 -0.625 L 20.015625 0 L 12.125 0 L 12.125 -0.625 L 14.28125 -0.765625 L 14.28125 -9.8125 L 6.75 -9.8125 L 6.75 -0.765625 L 8.90625 -0.625 L 8.90625 0 Z M 1.015625 0 "/></g></g></g><g fill="#000000" fill-opacity="1"><g transform="translate(213.084511, 95.462014)"><g><path d="M 1.34375 -9.921875 C 1.34375 -11.835938 1.6875 -13.585938 2.375 -15.171875 C 3.0625 -16.753906 4.070312 -18.03125 5.40625 -19 C 6.75 -19.96875 8.296875 -20.453125 10.046875 -20.453125 C 12.671875 -20.453125 14.785156 -19.519531 16.390625 -17.65625 C 18.003906 -15.800781 18.8125 -13.367188 18.8125 -10.359375 C 18.8125 -9.265625 18.703125 -8.195312 18.484375 -7.15625 C 18.265625 -6.125 17.921875 -5.144531 17.453125 -4.21875 C 16.984375 -3.289062 16.414062 -2.476562 15.75 -1.78125 C 15.082031 -1.082031 14.265625 -0.53125 13.296875 -0.125 C 12.328125 0.28125 11.269531 0.484375 10.125 0.484375 C 7.394531 0.484375 5.25 -0.460938 3.6875 -2.359375 C 2.125 -4.265625 1.34375 -6.785156 1.34375 -9.921875 Z M 5.09375 -10.21875 C 5.09375 -8.382812 5.273438 -6.726562 5.640625 -5.25 C 6.003906 -3.769531 6.5625 -2.570312 7.3125 -1.65625 C 8.070312 -0.738281 8.984375 -0.28125 10.046875 -0.28125 C 11.609375 -0.28125 12.832031 -1.1875 13.71875 -3 C 14.613281 -4.820312 15.0625 -7.238281 15.0625 -10.25 C 15.0625 -13.382812 14.625 -15.738281 13.75 -17.3125 C 12.882812 -18.882812 11.675781 -19.671875 10.125 -19.671875 C 9.582031 -19.671875 9.066406 -19.554688 8.578125 -19.328125 C 8.085938 -19.109375 7.628906 -18.75 7.203125 -18.25 C 6.773438 -17.757812 6.40625 -17.15625 6.09375 -16.4375 C 5.789062 -15.71875 5.546875 -14.828125 5.359375 -13.765625 C 5.179688 -12.703125 5.09375 -11.519531 5.09375 -10.21875 Z M 5.09375 -10.21875 "/></g></g></g><g fill="#000000" fill-opacity="1"><g transform="translate(233.228336, 95.462014)"><g><path d="M 0.84375 -13.109375 L 0.984375 -19.953125 L 16.25 -19.953125 L 16.390625 -13.125 L 15.625 -13.125 C 15.488281 -13.832031 15.367188 -14.40625 15.265625 -14.84375 C 15.171875 -15.289062 15.054688 -15.753906 14.921875 -16.234375 C 14.785156 -16.722656 14.640625 -17.101562 14.484375 -17.375 C 14.335938 -17.644531 14.15625 -17.910156 13.9375 -18.171875 C 13.726562 -18.441406 13.484375 -18.640625 13.203125 -18.765625 C 12.929688 -18.898438 12.613281 -19.003906 12.25 -19.078125 C 11.882812 -19.160156 11.460938 -19.203125 10.984375 -19.203125 C 10.953125 -19.203125 10.878906 -19.195312 10.765625 -19.1875 C 10.648438 -19.1875 10.546875 -19.1875 10.453125 -19.1875 L 10.453125 -0.765625 L 12.609375 -0.625 L 12.609375 0 L 4.734375 0 L 4.734375 -0.625 L 6.859375 -0.765625 L 6.78125 -19.171875 C 6.6875 -19.171875 6.582031 -19.171875 6.46875 -19.171875 C 6.351562 -19.179688 6.273438 -19.1875 6.234375 -19.1875 C 5.816406 -19.1875 5.441406 -19.160156 5.109375 -19.109375 C 4.785156 -19.066406 4.488281 -18.976562 4.21875 -18.84375 C 3.957031 -18.71875 3.726562 -18.578125 3.53125 -18.421875 C 3.34375 -18.273438 3.160156 -18.0625 2.984375 -17.78125 C 2.816406 -17.507812 2.675781 -17.238281 2.5625 -16.96875 C 2.445312 -16.707031 2.328125 -16.351562 2.203125 -15.90625 C 2.078125 -15.457031 1.878906 -14.523438 1.609375 -13.109375 Z M 0.84375 -13.109375 "/></g></g></g><g fill="#000000" fill-opacity="1"><g transform="translate(250.450533, 95.462014)"><g><path d="M 1.34375 -9.921875 C 1.34375 -11.835938 1.6875 -13.585938 2.375 -15.171875 C 3.0625 -16.753906 4.070312 -18.03125 5.40625 -19 C 6.75 -19.96875 8.296875 -20.453125 10.046875 -20.453125 C 12.671875 -20.453125 14.785156 -19.519531 16.390625 -17.65625 C 18.003906 -15.800781 18.8125 -13.367188 18.8125 -10.359375 C 18.8125 -9.265625 18.703125 -8.195312 18.484375 -7.15625 C 18.265625 -6.125 17.921875 -5.144531 17.453125 -4.21875 C 16.984375 -3.289062 16.414062 -2.476562 15.75 -1.78125 C 15.082031 -1.082031 14.265625 -0.53125 13.296875 -0.125 C 12.328125 0.28125 11.269531 0.484375 10.125 0.484375 C 7.394531 0.484375 5.25 -0.460938 3.6875 -2.359375 C 2.125 -4.265625 1.34375 -6.785156 1.34375 -9.921875 Z M 5.09375 -10.21875 C 5.09375 -8.382812 5.273438 -6.726562 5.640625 -5.25 C 6.003906 -3.769531 6.5625 -2.570312 7.3125 -1.65625 C 8.070312 -0.738281 8.984375 -0.28125 10.046875 -0.28125 C 11.609375 -0.28125 12.832031 -1.1875 13.71875 -3 C 14.613281 -4.820312 15.0625 -7.238281 15.0625 -10.25 C 15.0625 -13.382812 14.625 -15.738281 13.75 -17.3125 C 12.882812 -18.882812 11.675781 -19.671875 10.125 -19.671875 C 9.582031 -19.671875 9.066406 -19.554688 8.578125 -19.328125 C 8.085938 -19.109375 7.628906 -18.75 7.203125 -18.25 C 6.773438 -17.757812 6.40625 -17.15625 6.09375 -16.4375 C 5.789062 -15.71875 5.546875 -14.828125 5.359375 -13.765625 C 5.179688 -12.703125 5.09375 -11.519531 5.09375 -10.21875 Z M 5.09375 -10.21875 "/></g></g></g><g fill="#000000" fill-opacity="1"><g transform="translate(270.605083, 95.462014)"><g/></g></g><path stroke-linecap="butt" transform="matrix(0.895097, 0, 0, 0.895097, 117.639661, 99.758496)" fill="none" stroke-linejoin="miter" d="M 0.00107674 1.997973 L 160.000393 1.997973 " stroke="#000000" stroke-width="4" stroke-opacity="1" stroke-miterlimit="4"/><g transform="matrix(1, 0, 0, 1, 138, 102)"><g clip-path="url(#1e0c582713)"><g clip-path="url(#ea78c2443e)"><path fill="#ffffff" d="M 5.167969 0.980469 L 78.433594 0.980469 C 79.523438 0.980469 80.574219 1.414062 81.34375 2.183594 C 82.117188 2.957031 82.550781 4.003906 82.550781 5.097656 L 82.550781 13.335938 C 82.550781 14.425781 82.117188 15.476562 81.34375 16.246094 C 80.574219 17.019531 79.523438 17.453125 78.433594 17.453125 L 5.167969 17.453125 C 2.890625 17.453125 1.046875 15.609375 1.046875 13.335938 L 1.046875 5.097656 C 1.046875 2.824219 2.890625 0.980469 5.167969 0.980469 Z M 5.167969 0.980469 " fill-opacity="1" fill-rule="nonzero"/></g><g fill="#000000" fill-opacity="1"><g transform="translate(4.675481, 12.61692)"><g><path d="M 0.984375 0 L 0.984375 -6.46875 L 3.421875 -6.46875 C 3.828125 -6.46875 4.164062 -6.40625 4.4375 -6.28125 C 4.71875 -6.15625 4.925781 -5.972656 5.0625 -5.734375 C 5.207031 -5.503906 5.28125 -5.226562 5.28125 -4.90625 C 5.28125 -4.625 5.203125 -4.367188 5.046875 -4.140625 C 4.898438 -3.910156 4.6875 -3.734375 4.40625 -3.609375 L 4.40625 -3.515625 C 4.832031 -3.410156 5.15625 -3.21875 5.375 -2.9375 C 5.601562 -2.65625 5.71875 -2.300781 5.71875 -1.875 C 5.71875 -1.269531 5.539062 -0.804688 5.1875 -0.484375 C 4.832031 -0.160156 4.304688 0 3.609375 0 Z M 3.390625 -3.75 C 3.742188 -3.75 4.019531 -3.84375 4.21875 -4.03125 C 4.414062 -4.21875 4.515625 -4.476562 4.515625 -4.8125 C 4.515625 -5.15625 4.421875 -5.410156 4.234375 -5.578125 C 4.046875 -5.753906 3.765625 -5.84375 3.390625 -5.84375 L 1.734375 -5.84375 L 1.734375 -3.75 Z M 3.5625 -0.625 C 4.476562 -0.625 4.9375 -1.039062 4.9375 -1.875 C 4.9375 -2.707031 4.476562 -3.125 3.5625 -3.125 L 1.734375 -3.125 L 1.734375 -0.625 Z M 3.5625 -0.625 "/></g></g><g transform="translate(10.905664, 12.61692)"><g><path d="M 3.546875 0.09375 C 2.984375 0.09375 2.484375 -0.0234375 2.046875 -0.265625 C 1.609375 -0.503906 1.265625 -0.875 1.015625 -1.375 C 0.765625 -1.875 0.640625 -2.492188 0.640625 -3.234375 C 0.640625 -3.972656 0.765625 -4.59375 1.015625 -5.09375 C 1.265625 -5.59375 1.609375 -5.960938 2.046875 -6.203125 C 2.484375 -6.441406 2.984375 -6.5625 3.546875 -6.5625 C 4.109375 -6.5625 4.609375 -6.441406 5.046875 -6.203125 C 5.484375 -5.960938 5.828125 -5.59375 6.078125 -5.09375 C 6.328125 -4.59375 6.453125 -3.972656 6.453125 -3.234375 C 6.453125 -2.492188 6.328125 -1.875 6.078125 -1.375 C 5.828125 -0.875 5.484375 -0.503906 5.046875 -0.265625 C 4.609375 -0.0234375 4.109375 0.09375 3.546875 0.09375 Z M 3.546875 -0.609375 C 4.222656 -0.609375 4.738281 -0.816406 5.09375 -1.234375 C 5.457031 -1.660156 5.640625 -2.328125 5.640625 -3.234375 C 5.640625 -4.140625 5.457031 -4.800781 5.09375 -5.21875 C 4.738281 -5.644531 4.222656 -5.859375 3.546875 -5.859375 C 2.148438 -5.859375 1.453125 -4.984375 1.453125 -3.234375 C 1.453125 -1.484375 2.148438 -0.609375 3.546875 -0.609375 Z M 3.546875 -0.609375 "/></g></g><g transform="translate(18.008162, 12.61692)"><g><path d="M 3.546875 0.09375 C 2.984375 0.09375 2.484375 -0.0234375 2.046875 -0.265625 C 1.609375 -0.503906 1.265625 -0.875 1.015625 -1.375 C 0.765625 -1.875 0.640625 -2.492188 0.640625 -3.234375 C 0.640625 -3.972656 0.765625 -4.59375 1.015625 -5.09375 C 1.265625 -5.59375 1.609375 -5.960938 2.046875 -6.203125 C 2.484375 -6.441406 2.984375 -6.5625 3.546875 -6.5625 C 4.109375 -6.5625 4.609375 -6.441406 5.046875 -6.203125 C 5.484375 -5.960938 5.828125 -5.59375 6.078125 -5.09375 C 6.328125 -4.59375 6.453125 -3.972656 6.453125 -3.234375 C 6.453125 -2.492188 6.328125 -1.875 6.078125 -1.375 C 5.828125 -0.875 5.484375 -0.503906 5.046875 -0.265625 C 4.609375 -0.0234375 4.109375 0.09375 3.546875 0.09375 Z M 3.546875 -0.609375 C 4.222656 -0.609375 4.738281 -0.816406 5.09375 -1.234375 C 5.457031 -1.660156 5.640625 -2.328125 5.640625 -3.234375 C 5.640625 -4.140625 5.457031 -4.800781 5.09375 -5.21875 C 4.738281 -5.644531 4.222656 -5.859375 3.546875 -5.859375 C 2.148438 -5.859375 1.453125 -4.984375 1.453125 -3.234375 C 1.453125 -1.484375 2.148438 -0.609375 3.546875 -0.609375 Z M 3.546875 -0.609375 "/></g></g><g transform="translate(25.11066, 12.61692)"><g><path d="M 5.046875 -6.46875 L 5.046875 -5.828125 L 3.015625 -5.828125 L 3.015625 0 L 2.265625 0 L 2.265625 -5.828125 L 0.234375 -5.828125 L 0.234375 -6.46875 Z M 5.046875 -6.46875 "/></g></g><g transform="translate(30.397681, 12.61692)"><g><path d="M 5.109375 -3.84375 L 5.109375 -6.46875 L 5.859375 -6.46875 L 5.859375 0 L 5.109375 0 L 5.109375 -3.203125 L 1.734375 -3.203125 L 1.734375 0 L 0.984375 0 L 0.984375 -6.46875 L 1.734375 -6.46875 L 1.734375 -3.84375 Z M 5.109375 -3.84375 "/></g></g><g transform="translate(37.243355, 12.61692)"><g/></g><g transform="translate(39.466207, 12.61692)"><g><path d="M 2.703125 0.09375 C 2.253906 0.09375 1.863281 0.015625 1.53125 -0.140625 C 1.195312 -0.304688 0.9375 -0.535156 0.75 -0.828125 C 0.570312 -1.117188 0.484375 -1.457031 0.484375 -1.84375 C 0.484375 -2.300781 0.597656 -2.671875 0.828125 -2.953125 C 1.054688 -3.242188 1.390625 -3.476562 1.828125 -3.65625 L 1.84375 -3.75 C 1.625 -4.007812 1.46875 -4.242188 1.375 -4.453125 C 1.289062 -4.660156 1.25 -4.894531 1.25 -5.15625 C 1.25 -5.425781 1.3125 -5.664062 1.4375 -5.875 C 1.570312 -6.082031 1.753906 -6.25 1.984375 -6.375 C 2.222656 -6.5 2.507812 -6.5625 2.84375 -6.5625 C 3.144531 -6.5625 3.410156 -6.507812 3.640625 -6.40625 C 3.867188 -6.300781 4.039062 -6.148438 4.15625 -5.953125 C 4.28125 -5.753906 4.34375 -5.519531 4.34375 -5.25 C 4.34375 -4.851562 4.21875 -4.507812 3.96875 -4.21875 C 3.726562 -3.9375 3.367188 -3.707031 2.890625 -3.53125 L 2.875 -3.4375 L 4.40625 -1.4375 C 4.519531 -1.644531 4.597656 -1.894531 4.640625 -2.1875 C 4.691406 -2.476562 4.71875 -2.800781 4.71875 -3.15625 L 4.71875 -3.296875 L 5.359375 -3.296875 C 5.359375 -2.273438 5.179688 -1.484375 4.828125 -0.921875 C 4.953125 -0.773438 5.054688 -0.675781 5.140625 -0.625 C 5.222656 -0.582031 5.3125 -0.5625 5.40625 -0.5625 C 5.5 -0.5625 5.585938 -0.578125 5.671875 -0.609375 L 5.734375 -0.578125 L 5.84375 -0.0625 C 5.789062 -0.0195312 5.71875 0.0078125 5.625 0.03125 C 5.539062 0.0507812 5.453125 0.0625 5.359375 0.0625 C 5.148438 0.0625 4.96875 0.0195312 4.8125 -0.0625 C 4.664062 -0.15625 4.53125 -0.285156 4.40625 -0.453125 L 4.3125 -0.453125 C 3.957031 -0.0859375 3.421875 0.09375 2.703125 0.09375 Z M 2.5 -3.9375 C 2.882812 -4.101562 3.171875 -4.28125 3.359375 -4.46875 C 3.546875 -4.664062 3.640625 -4.914062 3.640625 -5.21875 C 3.640625 -5.445312 3.566406 -5.628906 3.421875 -5.765625 C 3.285156 -5.898438 3.09375 -5.96875 2.84375 -5.96875 C 2.582031 -5.96875 2.375 -5.890625 2.21875 -5.734375 C 2.0625 -5.585938 1.984375 -5.390625 1.984375 -5.140625 C 1.984375 -4.953125 2.019531 -4.773438 2.09375 -4.609375 C 2.164062 -4.441406 2.300781 -4.21875 2.5 -3.9375 Z M 2.734375 -0.546875 C 3.222656 -0.546875 3.628906 -0.671875 3.953125 -0.921875 L 2.140625 -3.25 C 1.859375 -3.113281 1.640625 -2.9375 1.484375 -2.71875 C 1.328125 -2.5 1.25 -2.222656 1.25 -1.890625 C 1.25 -1.609375 1.3125 -1.363281 1.4375 -1.15625 C 1.5625 -0.957031 1.734375 -0.804688 1.953125 -0.703125 C 2.171875 -0.597656 2.429688 -0.546875 2.734375 -0.546875 Z M 2.734375 -0.546875 "/></g></g><g transform="translate(45.479419, 12.61692)"><g/></g><g transform="translate(47.702271, 12.61692)"><g><path d="M 1.6875 0 L 0.984375 0 L 0.984375 -6.46875 L 2.109375 -6.46875 L 4.0625 -0.984375 L 4.15625 -0.984375 L 6.125 -6.46875 L 7.203125 -6.46875 L 7.203125 0 L 6.484375 0 L 6.484375 -5.28125 L 6.375 -5.296875 L 4.46875 0 L 3.703125 0 L 1.796875 -5.296875 L 1.6875 -5.28125 Z M 1.6875 0 "/></g></g><g transform="translate(55.898482, 12.61692)"><g><path d="M 3.546875 0.09375 C 2.984375 0.09375 2.484375 -0.0234375 2.046875 -0.265625 C 1.609375 -0.503906 1.265625 -0.875 1.015625 -1.375 C 0.765625 -1.875 0.640625 -2.492188 0.640625 -3.234375 C 0.640625 -3.972656 0.765625 -4.59375 1.015625 -5.09375 C 1.265625 -5.59375 1.609375 -5.960938 2.046875 -6.203125 C 2.484375 -6.441406 2.984375 -6.5625 3.546875 -6.5625 C 4.109375 -6.5625 4.609375 -6.441406 5.046875 -6.203125 C 5.484375 -5.960938 5.828125 -5.59375 6.078125 -5.09375 C 6.328125 -4.59375 6.453125 -3.972656 6.453125 -3.234375 C 6.453125 -2.492188 6.328125 -1.875 6.078125 -1.375 C 5.828125 -0.875 5.484375 -0.503906 5.046875 -0.265625 C 4.609375 -0.0234375 4.109375 0.09375 3.546875 0.09375 Z M 3.546875 -0.609375 C 4.222656 -0.609375 4.738281 -0.816406 5.09375 -1.234375 C 5.457031 -1.660156 5.640625 -2.328125 5.640625 -3.234375 C 5.640625 -4.140625 5.457031 -4.800781 5.09375 -5.21875 C 4.738281 -5.644531 4.222656 -5.859375 3.546875 -5.859375 C 2.148438 -5.859375 1.453125 -4.984375 1.453125 -3.234375 C 1.453125 -1.484375 2.148438 -0.609375 3.546875 -0.609375 Z M 3.546875 -0.609375 "/></g></g><g transform="translate(63.00098, 12.61692)"><g><path d="M 0.984375 0 L 0.984375 -6.46875 L 3.328125 -6.46875 C 3.765625 -6.46875 4.128906 -6.394531 4.421875 -6.25 C 4.710938 -6.113281 4.929688 -5.910156 5.078125 -5.640625 C 5.234375 -5.378906 5.3125 -5.070312 5.3125 -4.71875 C 5.3125 -4.320312 5.207031 -3.992188 5 -3.734375 C 4.800781 -3.472656 4.488281 -3.273438 4.0625 -3.140625 L 4.0625 -3.046875 C 4.269531 -2.960938 4.441406 -2.832031 4.578125 -2.65625 C 4.710938 -2.476562 4.835938 -2.21875 4.953125 -1.875 L 5.546875 0 L 4.765625 0 L 4.109375 -1.984375 C 4.035156 -2.210938 3.945312 -2.390625 3.84375 -2.515625 C 3.75 -2.648438 3.625 -2.75 3.46875 -2.8125 C 3.3125 -2.875 3.117188 -2.90625 2.890625 -2.90625 L 1.734375 -2.90625 L 1.734375 0 Z M 3.3125 -3.546875 C 3.71875 -3.546875 4.019531 -3.640625 4.21875 -3.828125 C 4.414062 -4.015625 4.515625 -4.300781 4.515625 -4.6875 C 4.515625 -5.070312 4.414062 -5.359375 4.21875 -5.546875 C 4.019531 -5.734375 3.71875 -5.828125 3.3125 -5.828125 L 1.734375 -5.828125 L 1.734375 -3.546875 Z M 3.3125 -3.546875 "/></g></g><g transform="translate(68.99648, 12.61692)"><g><path d="M 1.734375 -3.046875 L 1.734375 -0.625 L 5.03125 -0.625 L 5.03125 0 L 0.984375 0 L 0.984375 -6.46875 L 4.96875 -6.46875 L 4.96875 -5.84375 L 1.734375 -5.84375 L 1.734375 -3.671875 L 4.578125 -3.671875 L 4.578125 -3.046875 Z M 1.734375 -3.046875 "/></g></g></g><g fill="#000000" fill-opacity="1"><g transform="translate(74.472429, 12.61692)"><g/></g><g transform="translate(76.69528, 12.61692)"><g/></g></g></g></g></g></g></svg>